# xmcd
#
# Track frame offsets: 
#        150
#        12432
#        24875
#        36365
#        48590
#        60595
#        72422
#        85510
#        98657
#        112275
#        125952
#        138062
#        150017
#        163527
#        175292
#        187715
#        199435
#        210590
#        223705
#        235842
#        250330
#        261420
#
# Disc length: 3659 seconds
#
# Revision: 0
# Processed by: cddbd v1.5.1PL0 Copyright (c) Steve Scherf et al.
# Submitted via: ExactAudioCopy v0.95a4
#
DISCID=340e4916
DTITLE=The Blue Sky Boys - The Sunny Side Of Life - Disc 3
DYEAR=1900
DGENRE=Country
TTITLE0=When The Roses Bloom In Dixieland
TTITLE1=Are You From Dixie
TTITLE2=Give Me My Roses Now
TTITLE3=The House Where We Were Wed
TTITLE4=There's No Other Love For Me
TTITLE5=God Sent My Little Girl
TTITLE6=Someone's Last Day
TTITLE7=She'll Be There
TTITLE8=The Lightning Express
TTITLE9=The Royal Telephone
TTITLE10=The Convict And The Rose
TTITLE11=Father, Dear Father, Come Home
TTITLE12=We Parted By The Riverside
TTITLE13=Only One Step More
TTITLE14=The East Bound Train
TTITLE15=The Last Mile Of The Way
TTITLE16=She's Somebody's Darling Once More
TTITLE17=I'm S-A-V-E-D
TTITLE18=Whispering Hope
TTITLE19=The Butcher's Boy
TTITLE20=This Evening Light
TTITLE21=Mary Of The Wild Moor
EXTD=
EXTT0=
EXTT1=
EXTT2=
EXTT3=
EXTT4=
EXTT5=
EXTT6=
EXTT7=
EXTT8=
EXTT9=
EXTT10=
EXTT11=
EXTT12=
EXTT13=
EXTT14=
EXTT15=
EXTT16=
EXTT17=
EXTT18=
EXTT19=
EXTT20=
EXTT21=
PLAYORDER=
